HIERARCHY
ROOT Hips
{
	OFFSET -0.001795 -0.223333 0.028219
	CHANNELS 6 Xposition Yposition Zposition Zrotation Yrotation Xrotation
	JOINT LeftUpLeg
	{
		OFFSET 0.069520 -0.091406 -0.006815
		CHANNELS 3 Zrotation Yrotation Xrotation
		JOINT LeftLeg
		{
			OFFSET 0.034277 -0.375199 -0.004496
			CHANNELS 3 Zrotation Yrotation Xrotation
			JOINT LeftFoot
			{
				OFFSET -0.013596 -0.397961 -0.043693
				CHANNELS 3 Zrotation Yrotation Xrotation
				JOINT LeftToe
				{
					OFFSET 0.026358 -0.055791 0.119288
					CHANNELS 3 Zrotation Yrotation Xrotation
					End Site
					{
						OFFSET 0.000000 0.000000 0.000000
					}
				}
			}
		}
	}
	JOINT RightUpLeg
	{
		OFFSET -0.067670 -0.090522 -0.004320
		CHANNELS 3 Zrotation Yrotation Xrotation
		JOINT RightLeg
		{
			OFFSET -0.038290 -0.382569 -0.008850
			CHANNELS 3 Zrotation Yrotation Xrotation
			JOINT RightFoot
			{
				OFFSET 0.015774 -0.398415 -0.042312
				CHANNELS 3 Zrotation Yrotation Xrotation
				JOINT RightToe
				{
					OFFSET -0.025372 -0.048144 0.123348
					CHANNELS 3 Zrotation Yrotation Xrotation
					End Site
					{
						OFFSET 0.000000 0.000000 0.000000
					}
				}
			}
		}
	}
	JOINT Spine
	{
		OFFSET -0.002533 0.108963 -0.026696
		CHANNELS 3 Zrotation Yrotation Xrotation
		JOINT Spine1
		{
			OFFSET 0.005487 0.135180 0.001092
			CHANNELS 3 Zrotation Yrotation Xrotation
			JOINT Spine2
			{
				OFFSET 0.001457 0.052922 0.025425
				CHANNELS 3 Zrotation Yrotation Xrotation
				JOINT Neck
				{
					OFFSET -0.002778 0.213870 -0.042857
					CHANNELS 3 Zrotation Yrotation Xrotation
					JOINT Head
					{
						OFFSET 0.005152 0.064970 0.051349
						CHANNELS 3 Zrotation Yrotation Xrotation
						End Site
						{
							OFFSET 0.000000 0.000000 0.000000
						}
					}
				}
				JOINT LeftShoulder
				{
					OFFSET 0.078845 0.121749 -0.034090
					CHANNELS 3 Zrotation Yrotation Xrotation
					JOINT LeftArm
					{
						OFFSET 0.090977 0.030469 -0.008868
						CHANNELS 3 Zrotation Yrotation Xrotation
						JOINT LeftForeArm
						{
							OFFSET 0.259612 -0.012772 -0.027456
							CHANNELS 3 Zrotation Yrotation Xrotation
							JOINT LeftHand
							{
								OFFSET 0.249234 0.008986 -0.001171
								CHANNELS 3 Zrotation Yrotation Xrotation
								End Site
								{
									OFFSET 0.000000 0.000000 0.000000
								}
							}
						}
					}
				}
				JOINT RightShoulder
				{
					OFFSET -0.081759 0.118833 -0.038615
					CHANNELS 3 Zrotation Yrotation Xrotation
					JOINT RightArm
					{
						OFFSET -0.096012 0.032551 -0.009143
						CHANNELS 3 Zrotation Yrotation Xrotation
						JOINT RightForeArm
						{
							OFFSET -0.253742 -0.013329 -0.021401
							CHANNELS 3 Zrotation Yrotation Xrotation
							JOINT RightHand
							{
								OFFSET -0.255298 0.007772 -0.005559
								CHANNELS 3 Zrotation Yrotation Xrotation
								End Site
								{
									OFFSET 0.000000 0.000000 0.000000
								}
							}
						}
					}
				}
			}
		}
	}
}
MOTION
Frames: 5
Frame Time: 0.050000
0.040487 0.960778 0.274976 -86.901798 43.140852 -77.532174 57.284565 -21.690758 -19.587499 -15.494416 -0.631207 12.181224 36.387011 37.105558 27.139775 0.000000 0.000000 0.000000 12.051336 -38.834152 -86.966130 -98.045156 31.456972 32.344948 57.523446 61.792268 41.751491 0.000000 0.000000 0.000000 -9.471008 -8.579433 31.068470 11.252675 -0.796507 -23.592083 15.046184 4.320116 23.680033 16.178478 -1.571244 -18.155204 0.000000 0.000000 0.000000 -7.945603 -20.175443 -2.474639 -41.840220 -27.848224 4.406724 -139.322686 -60.949465 85.223893 0.000000 0.000000 0.000000 -4.538306 7.370301 0.896149 53.989491 -1.889325 -2.482194 -17.701428 40.237892 -0.522867 0.000000 0.000000 0.000000
0.050668 0.946773 0.269949 -85.879798 46.016865 -79.118982 52.750877 -19.753204 -18.553799 -12.172161 -0.811115 16.082855 36.573346 36.254717 24.633275 0.000000 0.000000 0.000000 12.387029 -37.217900 -85.046248 -85.664799 37.233432 48.096665 23.136608 63.896517 0.507777 0.000000 0.000000 0.000000 -8.961433 -8.005239 29.980191 11.697714 -0.784042 -22.195636 12.535200 5.912885 22.569120 15.961434 -1.918948 -17.160573 0.000000 0.000000 0.000000 -9.231006 -21.249438 -3.518215 -46.049613 -22.395932 3.724081 -129.215418 -56.643933 65.426878 0.000000 0.000000 0.000000 -2.370279 8.708179 3.098905 50.685093 6.037615 0.045428 -32.126159 43.053134 -4.316189 0.000000 0.000000 0.000000
0.059749 0.929327 0.263884 -84.894008 49.575483 -80.678956 47.473704 -17.387913 -17.394714 -9.987077 -1.514358 19.977066 37.978287 36.502136 20.823417 0.000000 0.000000 0.000000 9.788745 -35.942060 -79.407153 -66.145327 34.435386 66.958476 0.200074 51.164011 -29.326140 0.000000 0.000000 0.000000 -9.141424 -7.718531 29.667556 11.002810 -0.371337 -22.837664 11.129508 6.823325 21.284060 17.527789 -3.376224 -17.083993 0.000000 0.000000 0.000000 -9.157469 -21.996519 -3.621790 -49.406145 -16.566019 1.872156 -121.049704 -51.501597 47.532864 0.000000 0.000000 0.000000 -1.643842 9.992861 4.436259 45.124078 10.884963 0.981591 -38.569211 46.627698 -6.722586 0.000000 0.000000 0.000000
0.068152 0.907659 0.258430 -83.357508 53.389284 -81.244859 43.234202 -15.682242 -15.885469 -10.280838 -2.044187 21.697813 36.051513 35.118508 12.241972 0.000000 0.000000 0.000000 6.624535 -34.456611 -73.130181 -49.777994 24.472361 78.529564 -2.571396 36.775649 -34.802663 0.000000 0.000000 0.000000 -8.837103 -6.861253 28.065303 10.744625 -0.106403 -22.650325 8.780221 7.288435 21.251823 17.631722 -3.553404 -17.036309 0.000000 0.000000 0.000000 -9.910699 -22.123088 -4.426943 -49.578511 -11.007963 0.065515 -116.511140 -48.776796 40.053148 0.000000 0.000000 0.000000 -1.134427 11.809037 6.037375 39.587071 16.291884 2.195103 -45.774658 44.609382 -8.874811 0.000000 0.000000 0.000000
0.075574 0.887020 0.254372 -81.335794 56.843803 -81.333595 38.630314 -13.238206 -15.957596 -12.715770 -3.298758 26.999621 37.848519 37.531010 7.251853 0.000000 0.000000 0.000000 1.252624 -31.171781 -62.797449 -39.004489 10.468876 80.664965 -0.723116 29.173188 -34.742213 0.000000 0.000000 0.000000 -10.055179 -6.408851 27.553895 10.828449 -0.056841 -22.321146 8.218947 9.370036 20.830960 19.033202 -5.094632 -16.534723 0.000000 0.000000 0.000000 -10.772316 -20.861491 -6.256160 -49.253683 -6.604945 -0.879096 -111.535519 -44.883434 30.283227 0.000000 0.000000 0.000000 -3.139045 12.688870 5.655265 37.738811 18.745381 3.445921 -48.904261 40.963376 -8.287499 0.000000 0.000000 0.000000
